<?xml version="1.0" encoding="UTF-8"?><svg id="Layer_1" xmlns="http://www.w3.org/2000/svg" width="2000" height="492.8571" viewBox="0 0 2000 492.8571"><path d="M237.5096,309.8625l-89.1683,89.8974c-16.1507-10.3794-30.619-22.5797-43.5332-37.4046l128.0583-129.6733c2.86-2.8961,6.5754-2.2323,9.5113.1708l128.6409,129.2711c-12.5599,13.9275-26.6174,26.8212-43.841,37.608l-89.668-89.8693ZM237.4615,282.3477l91.0887,91.8205,14.5789-12.6502-105.5845-106.181-105.2375,106.416,14.869,12.1768,90.2854-91.5822Z" fill="#fff"/><path d="M311.4319,179.6765c-22.0396-23.983-52.9629-34.6977-85.3599-31.1659-28.8342,3.1433-57.0345,19.571-73.3288,46.0175-17.5885,28.5472-20.3731,63.2285-7.2506,94.8815l-17.8998,17.9247c-21.6585-42.2895-18.1893-93.2695,9.4247-131.8883,43.5016-60.8378,131.2371-69.2987,185.6431-18.0167,40.6758,38.3402,50.6942,99.2924,25.3246,149.6586l-17.8697-17.9037c15.2751-37.2958,8.9567-79.4301-18.6836-109.5077Z" fill="#fff"/><path d="M338.1435,138.5491c-57.1477-52.9295-143.7257-52.7053-200.8071.0078l-16.1351-17.1332c65.8181-61.5187,168.1325-61.3324,233.437.2276l-16.4948,16.8978Z" fill="#fff"/><path d="M289.973,249.7706c-.1973-29.4097-22.5975-53.2748-51.7434-53.4631-28.8938-.1867-53.0122,23.0186-52.3608,53.0252l-20.4223,20.7124c-9.0977-31.7196,2.4184-64.8478,28.4382-83.3465,26.4502-18.8046,61.9347-18.7531,88.338.3521,25.5865,18.5142,36.9998,52.1496,27.6812,82.7655l-19.9308-20.0455Z" fill="#fff"/><path d="M109.0028,325.7053l-17.4161,17.3631c-40.5372-63.7544-35.0353-146.6784,13.2949-205.0603l16.9123,16.6765c-39.0701,48.1969-44.6446,116.2602-12.791,171.0207Z" fill="#fff"/><path d="M366.5549,325.6028c31.3711-54.7948,26.489-121.8492-12.7746-170.9556l16.6268-16.8105c48.2851,58.1531,54.0327,139.7664,13.7967,204.8191l-17.6489-17.053Z" fill="#fff"/><polygon points="237.6362 364.5007 185.4133 417.2915 166.1487 409.8018 237.5121 337.0133 309.4557 409.7113 290.1603 417.4829 237.6362 364.5007" fill="#fff"/><path d="M507.3008,352.626h-34.2905v-180.0928h34.2905v16.4702c9.9902-12.6899,24.3003-19.7104,40.2305-19.7104,33.481,0,57.7812,24.8408,57.7812,68.3115s-24.3003,68.5811-57.7812,68.5811c-15.3901,0-29.7002-6.4805-40.2305-19.9805v66.4209ZM536.7314,199.8037c-11.0703,0-23.7607,6.48-29.4307,14.8501v46.1709c5.6699,8.1001,18.3604,14.8501,29.4307,14.8501,19.71,0,32.9404-15.3901,32.9404-38.0703,0-22.4106-13.2305-37.8008-32.9404-37.8008Z" fill="#fff"/><path d="M690.0889,169.293c38.8809,0,65.3408,29.1606,65.3408,71.8213v7.5601h-96.9312c2.1602,16.4702,15.3901,30.2407,37.5308,30.2407,12.1504,0,26.46-4.8604,34.8301-12.9604l15.1201,22.1406c-13.2295,12.1499-33.4805,18.0903-53.7305,18.0903-39.6904,0-69.6611-26.7305-69.6611-68.5811,0-37.8008,27.8105-68.3115,67.501-68.3115ZM657.9585,225.4541h64.2612c-.8105-12.4204-9.4502-28.8906-32.1309-28.8906-21.3301,0-30.5103,15.9302-32.1304,28.8906Z" fill="#fff"/><path d="M858.5674,302.9453v-13.5c-8.9102,10.5298-24.3008,16.7402-41.3105,16.7402-20.79,0-45.3613-14.0405-45.3613-43.2007,0-30.5107,24.5713-41.5811,45.3613-41.5811,17.2803,0,32.6699,5.4004,41.3105,15.9307v-18.0903c0-13.2305-11.3398-21.8706-28.6201-21.8706-14.041,0-27.001,5.1304-38.0713,15.3901l-12.96-22.9502c15.9307-14.04,36.4502-20.5205,56.9707-20.5205,29.7012,0,56.9717,11.8804,56.9717,49.4111v84.2412h-34.291ZM858.5674,255.4248c-5.6699-7.5605-16.4707-11.3403-27.54-11.3403-13.501,0-24.5713,7.29-24.5713,19.7104,0,12.1499,11.0703,19.1699,24.5713,19.1699,11.0693,0,21.8701-3.7798,27.54-11.3398v-16.2002Z" fill="#fff"/><path d="M1011.3867,302.9453l-34.5605-50.2207-15.6602,16.7402v33.4805h-34.29V122.8525h34.29v107.7314l49.4111-58.0508h42.1201l-51.5703,59.1309,53.1904,71.2812h-42.9307Z" fill="#fff"/><path d="M1159.6143,302.9453v-79.3813c0-18.0903-9.4502-23.7603-24.3008-23.7603-13.2295,0-23.7598,7.5601-29.7002,15.3901v87.7515h-34.29V122.8525h34.29v66.6909c8.3701-9.9902,24.5703-20.2505,45.9004-20.2505,28.6211,0,42.3906,15.6606,42.3906,41.041v92.6113h-34.29Z" fill="#fff"/><path d="M1219.5498,237.6045c0-36.9907,25.9199-68.3115,68.8506-68.3115,43.2012,0,69.1211,31.3208,69.1211,68.3115,0,37.2603-25.9199,68.5811-69.1211,68.5811-42.9307,0-68.8506-31.3208-68.8506-68.5811ZM1321.8809,237.6045c0-20.2505-12.1504-37.8008-33.4805-37.8008s-33.2109,17.5503-33.2109,37.8008c0,20.52,11.8809,38.0703,33.2109,38.0703s33.4805-17.5503,33.4805-38.0703Z" fill="#fff"/><path d="M1470.918,302.9453v-16.4702c-8.9102,9.9902-24.5703,19.7104-45.9004,19.7104-28.6201,0-42.1201-15.6606-42.1201-41.041v-92.6113h34.29v79.1113c0,18.0903,9.4502,24.0303,24.0303,24.0303,13.2305,0,23.7607-7.29,29.7002-14.8501v-88.2915h34.291v130.4121h-34.291Z" fill="#fff"/><path d="M1539.2256,302.9453v-130.4121h34.29v17.8203c9.1807-11.6104,25.3809-20.7905,41.5811-20.7905v33.481c-2.4307-.54-5.6709-.8101-9.4502-.8101-11.3408,0-26.4609,6.21-32.1309,14.5801v86.1313h-34.29Z" fill="#fff"/><path d="M1630.4844,262.1748c11.8799,0,21.8701,9.9902,21.8701,21.8701s-9.9902,21.8706-21.8701,21.8706-21.8701-9.9902-21.8701-21.8706,9.9902-21.8701,21.8701-21.8701Z" fill="#fff"/><path d="M1760.3545,302.9453v-13.5c-8.9102,10.5298-24.3008,16.7402-41.3105,16.7402-20.79,0-45.3613-14.0405-45.3613-43.2007,0-30.5107,24.5713-41.5811,45.3613-41.5811,17.2803,0,32.6699,5.4004,41.3105,15.9307v-18.0903c0-13.2305-11.3398-21.8706-28.6201-21.8706-14.041,0-27.001,5.1304-38.0713,15.3901l-12.96-22.9502c15.9307-14.04,36.4502-20.5205,56.9707-20.5205,29.7012,0,56.9717,11.8804,56.9717,49.4111v84.2412h-34.291ZM1760.3545,255.4248c-5.6699-7.5605-16.4707-11.3403-27.54-11.3403-13.501,0-24.5713,7.29-24.5713,19.7104,0,12.1499,11.0703,19.1699,24.5713,19.1699,11.0693,0,21.8701-3.7798,27.54-11.3398v-16.2002Z" fill="#fff"/><path d="M1825.1523,132.8428c0-11.3403,9.4502-20.5205,20.5205-20.5205,11.3398,0,20.5205,9.1802,20.5205,20.5205s-9.1807,20.52-20.5205,20.52c-11.0703,0-20.5205-9.1802-20.5205-20.52ZM1828.6631,302.9453v-130.4121h34.29v130.4121h-34.29Z" fill="#fff"/></svg>
