<?xml version="1.0" encoding="UTF-8"?><svg id="Layer_1" xmlns="http://www.w3.org/2000/svg" width="2000" height="2000" viewBox="0 0 2000 2000"><path d="M1806.6772,1008.4789c0,448.7715-363.8318,812.5727-812.6411,812.5727S181.395,1457.2504,181.395,1008.4789,545.2268,195.9062,994.0361,195.9062s812.6411,363.8012,812.6411,812.5727ZM1285.7661,692.511l45.0966-45.606c-189.2886-177.3713-483.8924-176.8498-673.2573.1699l45.1193,45.3011c164.6319-152.3423,418.8074-153.5747,583.0414.1349ZM996.1991,710.2765c99.6539.105,188.8301,50.844,240.832,126.2592,57.309,83.1118,66.5254,185.1405,30.2131,277.0082l48.9975,48.2625c68.755-141.1948,37.3446-307.4626-72.6141-413.7563-111.0161-107.3158-277.385-132.247-414.4822-60.0062-172.4878,90.8891-242.7958,299.6311-155.3688,474.8174l47.718-49.4724c-36.5791-93.774-26.1462-196.5788,33.4916-280.5821,52.5899-74.0758,141.0941-122.6357,241.2129-122.5302ZM1370.7038,1216.9405l46.9884,45.9817c109.4478-177.7972,91.632-404.359-37.3691-567.0005l-45.6913,45.2403c107.2768,137.7392,121.0532,324.5834,36.072,475.7785ZM619.2031,1217.4203c-85.9254-151.1396-71.5236-338.0415,34.7872-475.9615l-45.6901-43.97c-131.5989,164.7265-144.6227,389.4998-36.2891,567.4478l47.192-47.5162ZM999.9541,844.9695c86.6829,2.7375,148.4202,70.3382,149.9902,151.8531l57.5717,56.6942c21.4793-88.051-12.0824-175.6671-79.2813-226.7898-71.0868-54.0805-165.9561-60.0495-243.2678-15.0927-83.6955,48.669-127.4108,144.3121-102.9495,242.2351l57.8033-57.7088c1.1014-86.6849,71.6393-153.9858,160.1335-151.1911ZM994.2498,1175.7614l258.932,258.7673c48.1483-31.9353,89.6412-68.8611,124.1127-111.8624l-353.7881-355.3381c-6.9505-9.3134-18.2293-17.3979-27.3486-17.4027-10.6725-.0056-21.4188,6.6265-28.9239,16.038l-355.3026,357.2879c37.8784,45.1433,78.4637,81.863,124.4714,110.4978l257.8471-257.9879ZM994.78,1337.7843l151.5807,151.3583,52.6654-23.5249-204.0879-204.2353-203.1955,203.7785,52.976,23.4913,150.0613-150.868Z"/><path d="M994.2498,1175.7614l-257.8471,257.9879c-46.0077-28.6348-86.593-65.3545-124.4714-110.4978l355.3026-357.2879c7.5052-9.4115,18.2515-16.0437,28.9239-16.038,9.1193.0048,20.3981,8.0893,27.3486,17.4027l353.7881,355.3381c-34.4715,43.0013-75.9644,79.9271-124.1127,111.8624l-258.932-258.7673ZM994.223,1098.5416l263.4255,262.965,44.2021-38.6755-307.4448-307.2314-305.9373,307.707c15.1994,14.8313,28.375,26.0071,44.5291,37.4982l261.2253-262.2631Z" fill="#fff"/><path d="M996.1991,710.2765c-100.1188-.1055-188.623,48.4544-241.2129,122.5302-59.6379,84.0032-70.0707,186.8081-33.4916,280.5821l-47.718,49.4724c-87.427-175.1863-17.119-383.9283,155.3688-474.8174,137.0973-72.2408,303.4661-47.3096,414.4822,60.0062,109.9588,106.2937,141.3691,272.5615,72.6141,413.7563l-48.9975-48.2625c36.3122-91.8677,27.0959-193.8964-30.2131-277.0082-52.0019-75.4153-141.1781-126.1542-240.832-126.2592Z" fill="#fff"/><path d="M1285.7661,692.511c-164.234-153.7096-418.4095-152.4772-583.0414-.1349l-45.1193-45.3011c189.3649-177.0197,483.9687-177.5412,673.2573-.1699l-45.0966,45.606Z" fill="#fff"/><path d="M999.9541,844.9695c-88.4941-2.7947-159.0321,64.5062-160.1335,151.1911l-57.8033,57.7088c-24.4612-97.923,19.254-193.5661,102.9495-242.2351,77.3116-44.9567,172.181-38.9878,243.2678,15.0927,67.1989,51.1227,100.7606,138.7388,79.2813,226.7898l-57.5717-56.6942c-1.57-81.5149-63.3073-149.1156-149.9902-151.8531Z" fill="#fff"/><path d="M619.2031,1217.4203l-47.192,47.5162c-108.3337-177.948-95.3098-402.7213,36.2891-567.4478l45.6901,43.97c-106.3108,137.92-120.7126,324.8219-34.7872,475.9615Z" fill="#fff"/><path d="M1370.7038,1216.9405c84.9812-151.1951,71.2048-338.0393-36.072-475.7785l45.6913-45.2403c129.0011,162.6415,146.8169,389.2033,37.3691,567.0005l-46.9884-45.9817Z" fill="#fff"/><polygon points="994.78 1337.7843 844.7188 1488.6523 791.7427 1465.1609 994.9382 1261.3824 1199.0261 1465.6177 1146.3607 1489.1426 994.78 1337.7843" fill="#fff"/><path d="M994.223,1098.5416l-261.2253,262.2631c-16.1541-11.4911-29.3298-22.6669-44.5291-37.4982l305.9373-307.707,307.4448,307.2314-44.2021,38.6755-263.4255-262.965Z"/></svg>