<?xml version="1.0" encoding="UTF-8"?><svg id="Layer_1" xmlns="http://www.w3.org/2000/svg" width="2000" height="2000" viewBox="0 0 2000 2000"><path d="M1770.9903,1759.1175c-65.5594,68.3948-152.4037,112.6864-248.6596,112.6061l-1043.5105-.8707c-201.4196-.1681-350.3039-177.7652-349.9673-373.3775l1.7326-1006.9452c.3435-199.6313,163.2414-362.372,363.0123-362.2537l1021.3011.6044c196.2841.1162,355.7101,166.0624,355.7972,361.5437l.4517,1014.1814c.0428,96.0091-32.9517,184.3993-100.1574,254.5116ZM1309.534,664.0788l50.7553-51.9995c-200.9453-189.4385-515.7722-190.0117-718.2979-.7004l49.6486,52.7239c175.6425-162.2141,442.0475-162.9041,617.894-.0241ZM1227.341,790.6401c85.0507,92.5579,104.4928,222.2177,57.4904,336.9881l54.9861,55.0952c78.0635-154.9918,47.2364-342.5599-77.9252-460.5443-167.4101-157.8103-437.3771-131.7735-571.2337,55.4427-84.9698,118.8415-95.6444,275.7222-29.0002,405.8598l55.0788-55.1598c-40.3785-97.4059-31.8104-204.1307,22.3105-291.9788,50.1384-81.3839,136.9121-131.9367,225.6366-141.6097,99.6871-10.8682,194.8399,22.1039,262.6569,95.9069ZM604.456,1240.0142c-98.015-168.5145-80.8621-377.9658,39.3587-526.282l-52.0401-51.3185c-148.7144,179.6587-165.6441,434.8407-40.909,631.032l53.5904-53.4314ZM1396.9573,1239.6989l54.3066,52.4771c123.8083-200.1866,106.1224-451.3351-42.4533-630.2896l-51.1616,51.731c120.8163,151.1151,135.8389,357.4614,39.3082,526.0815ZM1161.3108,1006.3407l61.3281,61.686c28.6737-94.2144-6.4454-197.7205-85.1765-254.6942-81.2443-58.7924-190.432-58.9509-271.8205-1.0834-80.0644,56.926-115.5002,158.8716-87.5059,256.4822l62.8406-63.7381c-2.0044-92.3395,72.2091-163.7489,161.1169-163.1744,89.6836.5795,158.6103,74.0197,159.2173,164.522ZM999.8783,1191.2613l275.9131,276.5547c52.9979-33.1942,96.2535-72.8721,134.901-115.7311l-395.8347-397.8058c-9.0341-7.3949-20.4666-9.4377-29.2669-.5257l-394.0421,399.0436c39.7377,45.6208,84.2574,83.1648,133.954,115.1052l274.3756-276.6411ZM1000.2677,1359.3994l161.6196,163.042,59.3728-23.9154-221.3742-223.7136-219.5889,223.992,59.278,23.0479,160.6926-162.453Z"/><path d="M999.8783,1191.2613l-274.3756,276.6411c-49.6965-31.9404-94.2163-69.4844-133.954-115.1052l394.0421-399.0436c8.8003-8.912,20.2328-6.8693,29.2669.5257l395.8347,397.8058c-38.6475,42.8589-81.9031,82.5369-134.901,115.7311l-275.9131-276.5547ZM999.7304,1106.5901l-261.2253,262.2631c-16.1541-11.4911-29.3298-22.6669-44.5291-37.4982l305.9373-307.707,307.4448,307.2314-44.2021,38.6755-263.4255-262.965Z" fill="#fff"/><path d="M1227.341,790.6401c-67.817-73.803-162.9697-106.7751-262.6569-95.9069-88.7244,9.673-175.4981,60.2258-225.6366,141.6097-54.1208,87.8481-62.689,194.573-22.3105,291.9788l-55.0788,55.1598c-66.6442-130.1376-55.9696-287.0183,29.0002-405.8598,133.8566-187.2162,403.8236-213.253,571.2337-55.4427,125.1615,117.9844,155.9887,305.5525,77.9252,460.5443l-54.9861-55.0952c47.0024-114.7704,27.5604-244.4302-57.4904-336.9881Z" fill="#fff"/><path d="M1309.534,664.0788c-175.8465-162.88-442.2515-162.19-617.894.0241l-49.6486-52.7239c202.5258-189.3113,517.3526-188.7382,718.2979.7004l-50.7553,51.9995Z" fill="#fff"/><path d="M1161.3108,1006.3407c-.607-90.5023-69.5337-163.9425-159.2173-164.522-88.9077-.5745-163.1213,70.835-161.1169,163.1744l-62.8406,63.7381c-27.9942-97.6106,7.4415-199.5562,87.5059-256.4822,81.3885-57.8675,190.5763-57.709,271.8205,1.0834,78.731,56.9737,113.8502,160.4798,85.1765,254.6942l-61.3281-61.686Z" fill="#fff"/><path d="M604.456,1240.0142l-53.5904,53.4314c-124.7352-196.1913-107.8055-451.3733,40.909-631.032l52.0401,51.3185c-120.2207,148.3162-137.3737,357.7675-39.3587,526.282Z" fill="#fff"/><path d="M1396.9573,1239.6989c96.5306-168.6201,81.5081-374.9665-39.3082-526.0815l51.1616-51.731c148.5757,178.9545,166.2616,430.103,42.4533,630.2896l-54.3066-52.4771Z" fill="#fff"/><polygon points="1000.2677 1359.3994 839.5751 1521.8523 780.2971 1498.8044 999.886 1274.8124 1221.2601 1498.526 1161.8873 1522.4414 1000.2677 1359.3994" fill="#fff"/><polygon points="999.7304 1106.5901 721.9175 1388.4158 676.1648 1350.9441 999.986 1023.4701 1324.8749 1350.2208 1280.015 1389.1492 999.7304 1106.5901"/></svg>
